<svg fill="none" viewBox="0 0 80 26"><g clip-path="url(#clip0_1801_10117)"><g fill-rule="evenodd" clip-path="url(#clip1_1801_10117)" clip-rule="evenodd"><path fill="#005AAB" d="M6.07 3.95c.229.358 1.176 3.57 1.315 4.196l-2.598-.023zM14.593.092c-1.258.37-1.253 1.689-1.253 3.089 0 2.276-.092 6.566.003 8.579.112 2.37 2.746 2.612 3.42.754.276-.764.153-5.273.153-6.26 0-1.38.065-2.924-.008-4.284-.066-1.238-.911-2.292-2.316-1.88zm4.59 3.695c-1.998.01-2.042 2.27 0 2.418v4.624c0 .747-.09 1.413.233 2.02.64 1.21 2.502 1.096 3.019.052.48-.972.018-4.858.236-6.694 1.082 0 2.226-.038 2.194-1.235-.03-1.203-1.093-1.182-2.215-1.182 0-.75-.082-1.184.712-1.257.693-.064 1.23.162 1.543-.38.569-.99-.231-1.881-1.627-2.083-1.233-.179-2.442.074-3.237.649-.905.654-.858 2.023-.858 3.07zM29.83 6.098c1.436-.306 1.818 1.014 1.896 2.226.084 1.302-.059 2.851-1.352 2.966-1.493.133-1.964-.966-2.03-2.318-.071-1.431.27-2.615 1.486-2.874m2.326 7.115c-.822.27-.982.729-2.715.6a5.4 5.4 0 0 1-2.475-.796c-1.222-.767-2.218-2.282-2.148-4.405.07-2.096 1.062-3.558 2.221-4.329.66-.438 1.525-.731 2.47-.807 1.749-.143 2.076.453 2.743.59.717-1.07 2.402-.676 2.865.44l-.071 8.432c-.482.885-1.535 1.107-2.308.737-.318-.153-.323-.274-.585-.459zm-28.205-2.08 4.288-.023c.178.768.487 1.875.957 2.24.743.574 1.83.43 2.448-.17.78-.758.607-1.467.238-2.518-.289-.823-.564-1.608-.855-2.43a1449 1449 0 0 1-1.694-4.808C8.614 1.37 8.644.095 6.074.108 5 .113 4.178.324 3.765 1.017 3.361 1.695.89 9.056.314 10.642c-.35.967-.499 1.81.17 2.489.782.794 2.546 1.008 3.084-.737.131-.424.256-.822.384-1.261"/><path fill="#ED1C24" d="m0 21.474.013 1.412h64.514c3.573 0 7.149.018 10.72 0 1.416-.006 2.919-.646 3.667-1.674C79.995 19.728 80 19.122 80 16.933c-.795-.124-68.308-.034-75.284-.032C2.169 16.901 0 18.923 0 21.474m74.028-20.07c.202.495.312.323.288 1.136a8.3 8.3 0 0 1-.172 1.33c-.147.781-.375 1.574-.557 2.366-.71 3.103-2.211 8.138 2.53 7.536 1.59-.203 3.436-1.11 2.411-2.86-.683.393-2.788 1.86-2.788-.37 0-1.38.509-2.712.7-4.021 1.502-.003 3.46.328 3.557-1.954-1.067.215-2.001.309-3.144.256.137-.871.935-2.769.456-3.426-.617-.845-2.405-.21-3.283.005zM40.95 6.503c.138-.811.732-2.304 0-2.828-.674-.483-2.242-.143-2.91.235.407.333.318.888.236 1.544-.175 1.392-.614 3.333-.967 4.664-.188.707-.811 2.359-.458 3.01.476.879 1.92.628 2.872.32-.09-.729-.47-.776.3-2.326.34-.687.661-1.334 1.003-1.998.35-.68.751-1.289 1.133-1.868a10 10 0 0 1 .643-.858c.13-.157.233-.21.364-.35.188-.199.162-.259.495-.293.119.856-.793 4.253-1.032 5.261-.185.78-.616 1.895.032 2.453.555.478 1.99.28 2.568-.068-.357-.93-.081-1.504.317-2.325.342-.7.644-1.327 1.017-1.986.43-.764 1.911-3.3 2.596-3.33.118.33-.879 4.66-1.018 5.409-.193 1.049-.138 2.083.728 2.452 1.043.444 1.89-.196 2.597-.47-.107-.247.016 0-.126-.213-.115-.17-.034 0-.144-.217-.505-.997-.026-2.762.19-3.807.203-.986.847-3.499.726-4.402-.222-1.655-2.067-1.312-3.3-.46-.563.389-.922.811-1.33 1.243-.513.543-.897 1.17-1.178 1.469.076-.855.496-1.79.134-2.64-.33-.773-1.198-.96-2.174-.62-1.193.414-1.857 1.26-2.602 2.113-.136.156-.196.242-.345.442l-.367.449zm19-.295c-.2.258-1.243 2.293-1.966 3.293-.32.44-2.346 3.537-2.163.751.084-1.282.825-5.486 2.652-5.166.587.104 1.314.742 1.476 1.12zm-.925 4.192c-.242.199-.63.893-.876 1.194-.628.768-.505.55-.952 1.05-.542.605-1.619 1.33-2.859 1.137-2.25-.35-1.81-4.047-1.078-5.863 1.097-2.726 3.539-5.305 6.432-4.408.176.055.631.285.71.298.267.043.475-.196.761-.274.698-.193 2.019.028 2.501.36l-.76 2.02c-.481 1.468-.77 3.212-.83 4.767-.06 1.606.112 1.483.39 2.455-.642.566-1.887.905-2.845.312-.861-.531-.625-1.909-.591-3.05zm9.026-3.82c.734-.993 2.08-2.993 3.44-3.216 2.25-.37.716 3.139-.462 3.872-.219-.291-.44-.634-.964-.451-.647.226-1.68 1.847-2.004 2.433a20 20 0 0 0-.961 1.967c-.692 1.653-.353 1.415-.246 2.255-.92.317-2.452.602-2.992-.236-.384-.595.264-2.4.448-3.097.269-1.022.52-2.076.738-3.118.279-1.323.504-2.051.073-3.141.818-.233 2.165-.733 2.932-.126.813.642.013 1.967-.003 2.857z"/><path fill="#FFD503" d="M0 25.619h73.316c1.829 0 3.098.158 4.5-.718.76-.474 2.067-1.85 2.072-3.12-.252.17-.382.422-.626.637C76.995 24.426 75.02 24 71.815 24H.005z"/></g></g><defs><clipPath id="clip0_1801_10117"><path fill="#fff" d="M0 0h80v25.63H0z"/></clipPath><clipPath id="clip1_1801_10117"><path fill="#fff" d="M0 0h80v25.63H0z"/></clipPath></defs></svg>