<svg fill="none" viewBox="0 0 80 27"><g clip-path="url(#clip0_1801_10685)"><g clip-path="url(#clip1_1801_10685)"><path fill="#F0F0F0" fill-rule="evenodd" d="M2.31 0h75.38c.635 0 1.214.26 1.632.678S80 1.674 80 2.31v22.228c0 .636-.26 1.215-.678 1.633a2.3 2.3 0 0 1-1.633.678H2.311c-.636 0-1.215-.26-1.633-.678A2.3 2.3 0 0 1 0 24.54V2.311C0 1.675.26 1.096.678.678A2.3 2.3 0 0 1 2.31 0" clip-rule="evenodd"/><path fill="#FECF22" fill-rule="evenodd" d="M79.12 18.226v6.313c0 .787-.644 1.43-1.43 1.43H2.31c-.786 0-1.43-.643-1.43-1.43v-6.313z" clip-rule="evenodd"/><path fill="#006AB4" d="M79.12 9.533H.88v7.785h78.24z"/><path fill="#D61627" fill-rule="evenodd" d="M2.31.88h75.38c.786 0 1.43.644 1.43 1.43v6.315H.88V2.311c0-.787.644-1.43 1.43-1.43" clip-rule="evenodd"/><path fill="#E6E6E6" fill-rule="evenodd" d="M12.834 6.315c5.247-1.555 9.688-2.479 13.92-3.018 3.79-.483 7.395-.653 11.252-.69v-.012h4.14v.014c3.825.039 7.407.212 11.172.697 4.212.54 8.632 1.463 13.848 3.008.573.17 1.13.438 1.55.857.443.443.72 1.007.72 1.727v9.052c0 .72-.277 1.284-.72 1.726-.419.42-.977.688-1.55.858-5.216 1.545-9.636 2.468-13.848 3.008-3.766.484-7.347.658-11.172.697v.013H40.79v-.005h-.516v.005h-.55v-.005h-.77v-.002c-4.172-.015-8.003-.166-12.004-.665-4.275-.534-8.771-1.464-14.117-3.047-.573-.17-1.13-.438-1.55-.858a2.36 2.36 0 0 1-.72-1.726v-9.05c0-.72.277-1.284.72-1.727.419-.419.977-.687 1.55-.857" clip-rule="evenodd"/><path fill="#006AB4" fill-rule="evenodd" d="M49.093 16.485c-.326-.456-.013-1.217.217-1.642.244-.45.605-1.022 1.177-.912.262.942-.578 2.646-1.394 2.554m-17.78-2.613c.424 1.062-.968 3.005-1.439 2.476-.382-.43.51-2.694 1.44-2.476m2.93 2.477-.165-.362c-.461.104-1.19.532-1.706.41-.28-.643 1.744-4.872 2.13-6.168l-1.015.046c-.287.473-.817 2.128-1.075 2.471-1.797-.188-2.546.33-3.277 1.289-1.19 1.556-.317 1.712-1.213 2.221-.789.45-.676.195-.735.131-.327-.285.59-2.249.679-2.677.113-.558-.176-1.004-.695-.974-.486.029-.848.373-1.194.56-1.2.646-.07-1.854-3.338.455-.252.178-.886.544-1.01.669.027-.205.968-2.235 1.16-2.712.368-.916.738-1.864 1.053-2.796-1.186-.08-4.719.533-5.793 1.491-2.031 1.811.39 4.206 1.99 2.366-.386-.277-.978-.009-1.069-.722-.078-.612.142-1.019.472-1.274.404-.31 2.176-.63 2.802-.747-.065.33-.34.954-.472 1.322-.7 1.951-1.557 4.93-4.047 5.006-1.302.041-1.675-.541-2.138-1.431-.284.322-.402.989-.237 1.475.147.436.49.738.898.933 1.945.94 3.663-.641 5.044-1.712.349-.27 1.645-1.584 2.31-1.258.372.741-.707 2.296-.73 3.066l1.281.028c.231-.635.418-1.328.638-1.995.187-.567.448-1.576 1.192-1.064.285.76-.925 2.352-.262 2.886.688.553 2.233-.555 2.6-.777.288.413.282.929 1.023 1.054.59.1 1.19-.18 1.525-.455.209.257.157.516.642.47.475-.045 1.889-.969 2.734-1.225zm24.328-1.085c-.057-.668.679-1.59 1.203-1.566.173.393-.132.825-.326 1.055-.225.265-.46.553-.877.51m-19.292-1.59.147.45c.4-.111.846-.373 1.246-.263.126.762-1.03 2.856-1.199 3.743l1.262-.026c.249-.418.51-1.396.703-1.91.2-.532.434-1.573 1.168-1.318.432.856-.744 2.39-.832 3.226l1.44.013c.267-.768.568-1.722.88-2.48.156-.377.32-.965.879-.81.637.18-.462 1.372-.45 2.427.005.472.326.887.797.84.627-.06 1.678-.919 2.217-1.04.246.556.298.902.957 1.006.674.105 1.095-.214 1.528-.465.013.014.027.035.035.044l.097.137c.132.191.207.341.528.373 1.063.107 2.632-1.59 3.245-2.398.686-.905.406-.836 1.286-.913-.193.833-1.142 2.164-.34 2.97.804.807 2.407-.282 2.894-.567.45.496.687.936 1.756.887.841-.039 1.308-.378 1.982-.573.821 1.348 3.503.022 3.4-.8-.346-.065-.75.417-1.105.608-.492.264-.992.096-1.003-.475-.005-.283.682-2.383.818-2.644l.812-.008.27-.925-.571-.01c.106-.969.62-1.799.794-2.656l-1.141.045-.916 2.534-.836.048-.197.95.657-.01c-.14.9-.661 2.118-1.12 2.69-.474.593-2.176.947-2.484-.09.399-.446 1.094-.548 1.637-1.488 1.36-2.355-1.356-2.642-2.465-1.002-.693 1.024-.479 1.342-.44 2.555-1.368.76-1.85.912-1.726-.428.124-1.356.331-1.155.557-1.396.173-.184.238-.517.05-.698-.218-.226-.59-.026-.995-.17-.258-.638.182-.744.36-1.092-.235-.056-.423-.024-.656-.06-.56-.087-.059-.101-.434-.318-.322.124-.344.136-.458.498-.327 1.043-.208 1.27-.779 2.07-.31.436-1.361 1.903-2.083 1.633-.333-.44.939-3.016 1.096-3.662-1.295-.097-1.101.15-1.283.35-1.197-.538-1.827-.08-2.562.572-1.052.935-1.098 2.28-1.227 2.428-.319.207-.967.493-1.44.321-.137-.539.7-2.118.837-2.76.144-.679-.246-1.04-.93-.863-.512.132-.71.607-1.181.669-.398-.28-.415-.866-1.227-.727-.574.098-.61.546-1.258.675-.013-.019-.023-.044-.03-.06l-.071-.178c-.032-.089-.104-.367-.248-.444-.655-.084-1.962.76-2.648.961z" clip-rule="evenodd"/><path fill="#D61627" fill-rule="evenodd" d="M36.727 13.3c.44 0 .84.179 1.127.468a1.59 1.59 0 0 1 0 2.256 1.59 1.59 0 0 1-2.255 0 1.59 1.59 0 0 1 0-2.256 1.6 1.6 0 0 1 1.128-.467m0-1.375c-.821 0-1.564.332-2.101.87a2.96 2.96 0 0 0-.87 2.101c0 .82.332 1.564.87 2.101a2.966 2.966 0 0 0 4.201 0 2.96 2.96 0 0 0 .87-2.1 2.96 2.96 0 0 0-.87-2.101 2.96 2.96 0 0 0-2.1-.87m1.867 1.104a2.63 2.63 0 0 0-1.867-.774c-.73 0-1.39.296-1.868.774a2.63 2.63 0 0 0-.773 1.867c0 .73.296 1.39.773 1.868a2.63 2.63 0 0 0 1.867.773c.73 0 1.39-.296 1.868-.773a2.63 2.63 0 0 0 .773-1.868c0-.73-.295-1.39-.773-1.867m-1.867-.416c-.631 0-1.202.255-1.615.669-.414.413-.669.984-.669 1.614s.255 1.202.67 1.615c.413.413.983.669 1.614.669.63 0 1.201-.256 1.614-.67.413-.412.669-.983.669-1.614 0-.63-.255-1.201-.67-1.614a2.27 2.27 0 0 0-1.614-.67m1.38.902a1.95 1.95 0 0 0-1.38-.572c-.54 0-1.028.219-1.381.572a1.95 1.95 0 0 0-.573 1.381 1.95 1.95 0 0 0 1.954 1.953 1.94 1.94 0 0 0 1.38-.572 1.95 1.95 0 0 0 0-2.762m-.486.487a1.263 1.263 0 0 0-1.79 0 1.263 1.263 0 0 0 0 1.789 1.263 1.263 0 0 0 1.79 0 1.263 1.263 0 0 0 0-1.79" clip-rule="evenodd"/><path fill="#D61627" fill-rule="evenodd" d="M13.205 7.579c10.367-3.072 17.497-3.646 26.121-3.663h1.5c8.555.023 15.662.61 25.969 3.663.696.205 1.32.594 1.32 1.32v9.052c0 .726-.624 1.115-1.32 1.32-10.307 3.054-17.414 3.64-25.97 3.663h-1.1c-8.805 0-15.994-.544-26.52-3.663-.697-.205-1.32-.594-1.32-1.32V8.899c0-.726.623-1.115 1.32-1.32m26.308-1.68c-8.055.03-15.271.337-24.713 2.78-.703.182-1.32.594-1.32 1.32v6.852c0 .726.617 1.139 1.32 1.32 9.368 2.423 16.546 2.745 24.526 2.779h1.35c7.979-.034 15.157-.356 24.523-2.779.703-.181 1.32-.594 1.32-1.32V9.999c0-.726-.617-1.138-1.32-1.32-9.441-2.442-16.658-2.749-24.713-2.78z" clip-rule="evenodd"/></g></g><defs><clipPath id="clip0_1801_10685"><path fill="#fff" d="M0 0h80v26.85H0z"/></clipPath><clipPath id="clip1_1801_10685"><path fill="#fff" d="M0 0h80v26.85H0z"/></clipPath></defs></svg>