<svg fill="none" viewBox="0 0 80 36"><g clip-path="url(#clip0_1801_11468)"><g fill-rule="evenodd" clip-path="url(#clip1_1801_11468)" clip-rule="evenodd"><path fill="#E8451E" d="m24.955.007-23.9 3.187S0 3.317 0 4.59v22.697s.144 2.656 3.18 2.656h27.087s2.414-.577 2.414-2.994V8.22s.047-2.656-3.138-2.656H3.423a1.66 1.66 0 0 1-1.274-1.238c-.08-.42.09-.464.536-.464H26.67V1.275S26.585-.112 24.955.007"/><path fill="#fff" d="M16.825 26.09c-1.981 0-3.44-.807-5.594-2.937a.978.978 0 0 1 1.376-1.389c2.267 2.241 3.317 2.798 5.128 2.307 1.053-.288 1.997-1.626 2.052-3.165.043-1.195-.8-1.976-2.506-2.317-3.063-.613-4.872-1.784-5.373-3.483-.404-1.367.127-2.894 1.455-4.182l.054-.05c2.856-2.386 6.171-.608 7.525.667a.978.978 0 0 1-1.338 1.425c-.114-.107-2.68-2.437-4.903-.614-.76.75-1.103 1.574-.916 2.206.271.92 1.65 1.673 3.88 2.12 3.792.758 4.115 3.263 4.078 4.305-.081 2.268-1.979 4.809-3.76 5.034q-.576.073-1.158.073"/><path fill="#E8451E" d="M42.733 5.427a5.3 5.3 0 0 0-1.39-.596c-1.01-.288-1.738-.657-2.085-1.129-.31-.41-.31-.943.062-1.627.21-.41.721-.669 1.377-.72.83-.034 1.654.16 2.384.557a.443.443 0 1 0 .396-.793C42.462.597 41.46.4 40.625.462c-.97.073-1.73.496-2.097 1.178-.56 1.03-.522 1.875 0 2.581.483.633 1.364 1.118 2.568 1.452.412.115.808.282 1.178.496.472.289.782.622.932.981.144.339.164.718.058 1.07a2.5 2.5 0 0 1-.237.522c0 .025-.024.05-.049.087-.36.533-.943.806-1.651.806-.782 0-1.738-.31-2.754-.93a6 6 0 0 1-.41-.261.447.447 0 1 0-.496.744q.219.137.421.298c1.167.708 2.271 1.054 3.214 1.054 1.018 0 1.862-.396 2.396-1.19a1 1 0 0 1 .075-.125q.216-.35.334-.744a2.4 2.4 0 0 0-.1-1.663 3.08 3.08 0 0 0-1.273-1.391m6.838-.981a2.86 2.86 0 0 0-1.54.05 4.2 4.2 0 0 0-1.539.864V.884a.447.447 0 0 0-.892 0v9.22a.447.447 0 0 0 .892 0v-3.45l.025-.023c.56-.684 1.18-1.105 1.775-1.29a1.9 1.9 0 0 1 1.056-.038c.283.077.532.247.706.484.194.3.29.653.273 1.01v3.298a.447.447 0 1 0 .894 0V6.792a2.54 2.54 0 0 0-.447-1.514 2.16 2.16 0 0 0-1.203-.832m7.594 4.567a2.22 2.22 0 0 1-3.128 0 2.22 2.22 0 0 1 0-3.128 2.21 2.21 0 0 1 3.128 3.128M55.603 4.36a3.09 3.09 0 0 0 0 6.179 3.09 3.09 0 0 0 0-6.18m9.084 4.654a2.24 2.24 0 0 1-1.564.65A2.21 2.21 0 0 1 61.56 5.89a2.24 2.24 0 0 1 1.563-.645 2.21 2.21 0 0 1 1.564 3.768M63.135 4.36a3.08 3.08 0 0 0-2.183.905 1 1 0 0 0-.1.1v-.558a.447.447 0 0 0-.894 0v8.785a.447.447 0 1 0 .894 0V9.534q.054.045.1.1a3.089 3.089 0 1 0 2.183-5.274M68.5 6.766c.11-.36.308-.689.576-.954a1.883 1.883 0 0 1 2.68 0c.266.27.47.596.596.954zm3.884-1.586a2.72 2.72 0 0 0-1.961-.819 2.65 2.65 0 0 0-1.961.82c-1.068 1.153-1.055 2.394-.633 3.648.188.534.557.986 1.042 1.277a2.87 2.87 0 0 0 1.651.433 5.6 5.6 0 0 0 2.06-.472.445.445 0 1 0-.348-.819 4.5 4.5 0 0 1-1.73.41 2.14 2.14 0 0 1-1.167-.297 1.9 1.9 0 0 1-.695-.866 4 4 0 0 1-.198-.819h4.108c.223 0 .956.05.576-1.204a3 3 0 0 0-.747-1.293zm2.893 1.586c.11-.361.308-.69.577-.954a1.885 1.885 0 0 1 2.68 0c.267.27.47.596.596.954zm4.727.466v-.326a2.6 2.6 0 0 0-.098-.432 3 3 0 0 0-.745-1.298 2.7 2.7 0 0 0-1.96-.82 2.65 2.65 0 0 0-1.961.82c-1.067 1.153-1.056 2.395-.633 3.648a2.43 2.43 0 0 0 1.042 1.278 2.87 2.87 0 0 0 1.651.432 5.6 5.6 0 0 0 2.06-.471.446.446 0 1 0-.348-.82 4.5 4.5 0 0 1-1.73.41 2.14 2.14 0 0 1-1.167-.297 1.9 1.9 0 0 1-.695-.865 4 4 0 0 1-.2-.819h4.11c.162.001.595.027.67-.44zM45.03 22.064h-4.637v-6.739h4.182q.108 0 .215.012c.637.07 3.42.552 3.42 3.537 0 3.187-3.182 3.187-3.182 3.187zm-.818-9.307h-6.43v17.185h2.61v-5.13h4.1a7.7 7.7 0 0 0 3.919-1.032c1.406-.832 2.81-2.298 2.81-4.834 0-2.378-1.234-3.886-2.546-4.82a7.7 7.7 0 0 0-4.463-1.372zm13.472 14.819a3.868 3.868 0 1 1 3.867-3.874v.01a3.866 3.866 0 0 1-3.867 3.864m3.867-9.85v1.21a6.148 6.148 0 1 0 0 9.547v1.369h2.608V17.726zm3.781-.166h3.488l4.09 7.831 3.948-7.83H80v.021l-9.37 17.442h-3.07l3.577-6.482z"/></g></g><defs><clipPath id="clip0_1801_11468"><path fill="#fff" d="M0 0h80v35.024H0z"/></clipPath><clipPath id="clip1_1801_11468"><path fill="#fff" d="M0 0h80v35.024H0z"/></clipPath></defs></svg>