<svg xmlns="http://www.w3.org/2000/svg" viewBox="0 0 512 512">
  <defs>
    <linearGradient id="cloudGrad" x1="0%" y1="0%" x2="100%" y2="100%">
      <stop offset="0%" style="stop-color:#00d4ff;stop-opacity:1" />
      <stop offset="100%" style="stop-color:#7b2fff;stop-opacity:1" />
    </linearGradient>
    <filter id="glow" x="-20%" y="-20%" width="140%" height="140%">
      <feGaussianBlur stdDeviation="8" result="blur" />
      <feComposite in="SourceGraphic" in2="blur" operator="over" />
    </filter>
  </defs>
  <rect width="512" height="512" rx="120" fill="#030712"/>
  <path d="M400,240 c0,-61.8 -50.2,-112 -112,-112 c-45.3,0 -84.3,27.1 -102.7,66.4 c-8.5,-3.5 -18,-5.4 -28.3,-5.4 c-38.6,0 -70,31.4 -70,70 c0,10.6 2.4,20.6 6.7,29.6 c-25.5,12.7 -42.7,39.3 -42.7,69.4 c0,44.2 35.8,80 80,80 l256,0 c39.8,0 72,-32.2 72,-72 c0,-32.2 -21.1,-59.5 -50,-68.9 C400,277.9 400,259.2 400,240 z" fill="url(#cloudGrad)" filter="url(#glow)"/>
  <text x="256" y="320" font-family="Arial, sans-serif" font-weight="bold" font-size="140" fill="#ffffff" text-anchor="middle" dominant-baseline="central">A</text>
</svg>
