<svg width="512" height="512" viewBox="0 0 512 512" fill="none" xmlns="http://www.w3.org/2000/svg">
  <rect width="512" height="512" rx="96" fill="#030712"/>
  <defs>
    <linearGradient id="g" x1="0%" y1="0%" x2="100%" y2="100%">
      <stop offset="0%" stop-color="#3b82f6"/>
      <stop offset="100%" stop-color="#06b6d4"/>
    </linearGradient>
  </defs>
  <!-- Cloud -->
  <path d="M412 213C405 170 377 136 340 136c-30 0-56 17-69 42-32 3-57 30-57 62 0 35 28 63 63 63h136c29 0 53-23 53-52 0-28-22-50-49-52z" fill="url(#g)" opacity="0.18"/>
  <path d="M412 213C405 170 377 136 340 136c-30 0-56 17-69 42-32 3-57 30-57 62 0 35 28 63 63 63h136c29 0 53-23 53-52 0-28-22-50-49-52z" stroke="url(#g)" stroke-width="6" fill="none" opacity="0.5"/>
  <!-- Lightning bolt -->
  <path d="M320 80L180 280h96L240 432l140-200h-96L320 80z" fill="url(#g)"/>
</svg>
